<?xml version="1.0" standalone="no"?>
<!DOCTYPE svg PUBLIC "-//W3C//DTD SVG 20010904//EN"
 "http://www.w3.org/TR/2001/REC-SVG-20010904/DTD/svg10.dtd">
<svg version="1.0" xmlns="http://www.w3.org/2000/svg"
 width="200.000000pt" height="200.000000pt" viewBox="0 0 200.000000 200.000000"
 preserveAspectRatio="xMidYMid meet">
<metadata>
Created by potrace 1.14, written by Peter Selinger 2001-2017
</metadata>
<g transform="translate(0.000000,200.000000) scale(0.100000,-0.100000)"
fill="#000000" stroke="none">
<path d="M950 1680 c-8 -5 -25 -7 -36 -4 -12 3 -25 1 -29 -6 -4 -6 -15 -8 -24
-5 -10 3 -23 -1 -30 -9 -6 -8 -21 -12 -31 -9 -12 3 -22 -1 -26 -10 -3 -9 -12
-13 -20 -10 -8 3 -21 -1 -30 -8 -19 -16 -50 -34 -82 -48 -12 -6 -25 -18 -28
-26 -4 -8 -13 -15 -20 -15 -8 0 -17 -7 -20 -15 -3 -8 -14 -17 -25 -20 -10 -4
-19 -13 -19 -20 0 -8 -9 -19 -20 -25 -11 -6 -20 -17 -20 -24 0 -8 -7 -16 -15
-20 -8 -3 -20 -16 -25 -28 -6 -13 -21 -41 -34 -63 -13 -22 -22 -45 -19 -51 2
-6 -3 -14 -12 -18 -9 -3 -15 -14 -14 -23 1 -10 0 -25 -4 -33 -13 -35 -21 -78
-22 -121 -1 -25 -5 -51 -9 -57 -4 -6 -3 -20 1 -29 5 -10 8 -39 7 -66 -1 -26 2
-50 7 -53 5 -3 9 -16 9 -29 0 -13 4 -26 8 -29 11 -7 7 -57 -6 -65 -7 -4 17
-48 64 -121 42 -63 79 -121 83 -129 7 -12 22 -11 93 7 l85 22 69 -35 c90 -45
170 -65 266 -65 100 0 165 14 260 57 l77 35 47 -16 c26 -9 53 -16 60 -16 7 0
51 58 97 129 47 70 90 131 96 135 6 4 11 18 11 31 0 13 5 27 11 31 6 3 9 17 6
30 -2 13 0 25 5 26 12 4 20 206 8 213 -5 3 -7 12 -3 20 3 8 2 23 -2 33 -5 9
-7 27 -6 39 1 11 -3 24 -8 28 -6 3 -11 17 -11 31 0 13 -4 24 -10 24 -5 0 -10
11 -10 24 0 13 -7 26 -15 30 -8 3 -15 15 -15 26 0 11 -7 23 -15 26 -8 4 -15
15 -15 25 0 11 -6 22 -14 25 -8 3 -16 14 -19 25 -3 10 -12 19 -21 19 -9 0 -16
6 -16 13 0 17 -55 67 -73 67 -8 0 -17 9 -20 20 -3 12 -14 20 -25 20 -11 0 -22
7 -26 15 -3 8 -14 15 -25 15 -11 0 -21 5 -23 12 -2 6 -14 12 -25 13 -12 0 -28
7 -37 14 -8 7 -21 11 -28 9 -7 -3 -19 2 -27 9 -7 8 -20 12 -29 8 -8 -3 -21 0
-28 6 -8 6 -21 8 -30 5 -9 -4 -23 -1 -31 5 -10 9 -17 9 -25 1 -8 -8 -16 -7
-29 1 -14 9 -21 9 -30 0 -8 -8 -18 -9 -29 -3 -9 5 -22 5 -30 0z m220 -82 c75
-17 202 -84 262 -138 71 -63 137 -163 174 -260 25 -67 28 -88 28 -200 0 -98
-4 -137 -20 -180 -10 -30 -23 -53 -29 -50 -12 6 -12 7 11 85 24 80 24 230 0
310 -57 192 -198 340 -386 406 -88 31 -268 33 -350 5 -143 -49 -270 -146 -338
-258 -85 -142 -110 -349 -58 -495 12 -35 12 -42 1 -47 -18 -7 -20 -3 -39 71
-20 77 -20 218 -1 302 46 194 217 376 415 440 94 30 224 34 330 9z m5 -32
c201 -55 358 -213 410 -413 22 -84 19 -226 -5 -307 -14 -45 -26 -66 -37 -66
-10 0 -13 6 -10 18 28 88 37 139 37 212 0 158 -50 280 -160 390 -209 209 -541
216 -758 15 -153 -141 -213 -339 -163 -534 11 -47 19 -86 17 -89 -22 -22 -56
112 -56 220 0 283 216 528 505 572 46 7 164 -3 220 -18z m-71 -102 c18 -17 27
-49 23 -78 -1 -15 9 -24 48 -38 60 -23 81 -45 90 -98 5 -27 15 -46 31 -57 13
-8 24 -22 24 -31 0 -8 -23 -77 -51 -152 -66 -176 -65 -175 -239 -175 -177 0
-178 1 -241 173 -27 74 -49 142 -49 153 0 10 9 24 20 31 11 7 20 20 20 30 0
36 51 118 83 133 41 18 67 39 67 54 0 7 7 25 15 41 15 29 19 30 80 30 44 0 68
-5 79 -16z m-270 -694 c0 -19 -4 -48 -9 -64 -6 -21 -5 -27 4 -22 6 4 11 19 11
33 0 20 4 24 20 20 11 -3 20 -1 20 4 0 5 5 9 10 9 6 0 10 -12 10 -27 0 -14 3
-23 7 -19 4 4 8 15 8 24 0 20 65 27 77 9 6 -9 8 -9 8 1 0 22 20 13 21 -10 l0
-23 9 23 c13 32 34 28 26 -5 l-6 -28 15 26 c13 24 18 26 50 19 30 -7 35 -5 35
11 0 11 7 19 16 19 16 0 16 -14 -2 -67 -5 -13 -2 -13 10 5 21 27 40 28 66 2
27 -27 25 -33 -9 -48 -35 -15 -77 -7 -108 21 -20 18 -23 18 -29 4 -5 -13 -21
-16 -82 -15 -43 1 -107 -2 -145 -6 -67 -7 -67 -7 -78 21 -10 26 -6 94 7 115 3
5 13 8 22 6 12 -3 17 -13 16 -38z m1 -275 c126 -49 301 -43 413 14 23 11 45
16 57 11 18 -6 16 -9 -14 -25 -115 -59 -266 -79 -385 -51 -85 20 -188 65 -180
78 7 11 12 10 109 -27z"/>
<path d="M962 1448 c-28 -28 -3 -72 35 -62 11 3 24 1 28 -6 5 -8 10 -8 21 1 8
6 23 9 33 6 25 -6 34 15 21 48 -9 23 -15 25 -68 25 -32 0 -63 -5 -70 -12z"/>
<path d="M902 1353 c-28 -51 -10 -100 66 -180 42 -46 65 -52 97 -27 20 15 19
17 -20 47 -73 58 -112 104 -122 144 -9 36 -10 37 -21 16z"/>
<path d="M940 1353 c0 -32 38 -81 96 -123 31 -24 59 -51 61 -60 6 -21 45 -34
74 -25 50 16 0 78 -96 120 -68 30 -93 50 -106 83 -10 26 -29 29 -29 5z"/>
<path d="M993 1354 c-8 -21 21 -43 98 -73 60 -24 119 -77 119 -106 0 -23 37
-18 43 6 13 50 -35 93 -145 128 -20 7 -53 23 -73 37 -31 21 -36 22 -42 8z"/>
<path d="M1062 1360 c3 -9 160 -79 177 -80 2 0 -4 9 -13 19 -10 11 -32 23 -50
26 -17 4 -46 16 -64 26 -37 21 -55 24 -50 9z"/>
<path d="M842 1318 c-18 -18 -14 -89 8 -125 28 -47 63 -67 90 -53 l22 12 -29
31 c-47 51 -63 79 -63 114 0 35 -8 41 -28 21z"/>
<path d="M797 1228 c-5 -16 20 -68 33 -68 5 0 2 17 -7 38 -18 45 -20 47 -26
30z"/>
<path d="M764 1165 c-9 -23 3 -33 59 -51 151 -46 487 -16 475 44 -5 24 -25 25
-31 2 -3 -13 -13 -20 -31 -20 -14 0 -37 -5 -51 -12 -18 -8 -35 -8 -59 -1 -25
8 -39 7 -61 -5 -23 -12 -34 -12 -65 -2 -28 9 -42 9 -58 1 -17 -9 -28 -8 -51 4
-17 8 -41 15 -55 15 -15 0 -31 9 -38 20 -15 24 -27 25 -34 5z"/>
<path d="M797 1043 c14 -38 32 -87 40 -111 8 -23 24 -47 36 -53 16 -9 19 -9
15 2 -3 8 -16 56 -29 108 -20 79 -28 95 -51 107 -15 8 -29 14 -32 14 -3 0 6
-30 21 -67z"/>
<path d="M1249 1098 c-23 -8 -29 -21 -54 -114 -15 -58 -25 -107 -23 -110 13
-12 39 32 72 124 21 57 36 105 34 106 -1 2 -15 -1 -29 -6z"/>
<path d="M860 1071 c0 -22 50 -195 60 -205 20 -20 21 4 6 102 -9 55 -16 102
-16 106 0 3 -11 6 -25 6 -14 0 -25 -4 -25 -9z"/>
<path d="M1145 1058 c-3 -13 -11 -63 -18 -111 -12 -78 -12 -87 1 -85 10 2 23
32 37 83 39 144 39 135 10 135 -17 0 -26 -7 -30 -22z"/>
<path d="M933 1048 c3 -13 11 -60 17 -105 9 -58 16 -83 26 -83 15 0 20 100 8
173 -6 31 -11 37 -31 37 -21 0 -24 -4 -20 -22z"/>
<path d="M1004 1033 c3 -21 6 -68 6 -105 0 -51 3 -68 14 -68 19 0 26 32 26
128 0 82 0 82 -26 82 -25 0 -26 -2 -20 -37z"/>
<path d="M1070 996 c0 -40 -3 -88 -6 -106 -6 -28 -4 -32 12 -28 16 3 21 20 35
106 l15 102 -28 0 -28 0 0 -74z"/>
<path d="M811 764 c0 -11 3 -14 6 -6 3 7 2 16 -1 19 -3 4 -6 -2 -5 -13z"/>
<path d="M970 704 c0 -8 5 -12 10 -9 6 3 10 10 10 16 0 5 -4 9 -10 9 -5 0 -10
-7 -10 -16z"/>
<path d="M300 631 c-25 -10 -58 -24 -75 -30 l-29 -12 82 -45 c45 -25 82 -47
82 -49 0 -3 -13 -41 -29 -85 -16 -44 -28 -80 -26 -80 1 0 36 14 76 32 41 17
104 41 141 53 50 16 65 24 58 34 -6 11 -15 11 -39 3 l-31 -11 -68 104 c-37 58
-74 105 -82 104 -8 0 -35 -8 -60 -18z"/>
<path d="M1554 548 c-37 -57 -67 -104 -69 -106 -1 -1 -15 2 -30 8 -22 8 -30 8
-37 -2 -13 -21 -11 -22 56 -42 35 -10 100 -32 144 -50 l80 -33 -30 85 c-16 46
-27 87 -23 90 3 3 40 24 81 47 61 34 73 44 58 50 -25 10 -157 55 -161 55 -2 0
-33 -46 -69 -102z"/>
<path d="M618 483 c-26 -7 -22 -32 7 -43 14 -5 25 -14 25 -20 0 -5 8 -10 19
-10 10 0 24 -7 31 -15 7 -8 21 -15 31 -15 10 0 21 -4 24 -10 3 -5 17 -10 30
-10 13 0 27 -5 31 -11 3 -6 15 -9 25 -6 10 3 22 1 25 -5 3 -5 16 -8 27 -7 12
0 24 0 27 -1 15 -7 161 -7 165 1 3 4 12 6 20 2 8 -3 23 -2 33 2 9 5 24 7 34 6
9 -1 19 3 23 9 3 5 17 10 30 10 13 0 27 5 30 10 3 6 15 10 26 10 11 0 22 7 25
15 4 8 17 15 30 15 13 0 24 5 24 10 0 6 11 15 25 20 34 13 32 37 -5 45 -22 5
-47 -2 -102 -29 -174 -86 -372 -86 -544 -1 -71 34 -82 37 -116 28z"/>
</g>
</svg>
